<?xml version="1.0" standalone="no"?>
<!DOCTYPE svg PUBLIC "-//W3C//DTD SVG 20010904//EN"
 "http://www.w3.org/TR/2001/REC-SVG-20010904/DTD/svg10.dtd">
<svg version="1.0" xmlns="http://www.w3.org/2000/svg"
 width="600.000000pt" height="76.000000pt" viewBox="0 0 600.000000 76.000000"
 preserveAspectRatio="xMidYMid meet">

<g transform="translate(0.000000,76.000000) scale(0.100000,-0.100000)"
fill="#000000" stroke="none">
<path d="M400 738 c-70 -36 -122 -148 -69 -148 56 0 129 82 129 145 0 31 -4
31 -60 3z"/>
<path d="M5560 700 c-26 -26 -25 -52 3 -78 28 -26 45 -27 75 -6 43 30 17 104
-36 104 -12 0 -31 -9 -42 -20z"/>
<path d="M860 360 l0 -350 50 0 50 0 2 263 3 262 99 -240 c54 -132 103 -250
109 -263 9 -19 17 -22 51 -20 l40 3 105 258 106 258 3 -261 2 -260 50 0 50 0
0 350 0 350 -64 0 -63 0 -113 -275 c-62 -151 -116 -275 -119 -275 -3 0 -56
123 -117 273 l-111 272 -67 3 -66 3 0 -351z"/>
<path d="M2650 360 l0 -350 155 0 c169 0 238 10 286 43 59 40 74 71 74 151 0
64 -3 77 -27 108 -17 22 -46 43 -74 54 l-45 17 29 13 c70 29 108 127 78 199
-42 99 -82 114 -303 115 l-173 0 0 -350z m351 231 c33 -33 38 -75 15 -120 -21
-40 -59 -54 -163 -59 l-93 -4 0 106 0 106 106 0 c103 0 106 -1 135 -29z m-19
-271 c50 -14 78 -52 78 -104 0 -87 -50 -116 -200 -116 l-100 0 0 115 0 115 93
0 c50 0 109 -5 129 -10z"/>
<path d="M4270 360 l0 -350 55 0 55 0 0 93 c0 80 3 96 19 111 11 10 24 15 29
12 5 -3 44 -52 88 -110 l79 -106 58 0 c31 0 57 2 57 5 0 3 -48 69 -106 146
l-105 140 103 107 103 107 -60 3 -60 3 -102 -108 -102 -108 -1 203 0 202 -55
0 -55 0 0 -350z"/>
<path d="M5010 373 c-68 -186 -125 -344 -128 -351 -3 -10 9 -12 54 -10 l58 3
30 93 30 93 140 -3 140 -3 30 -92 30 -93 58 0 57 0 -30 83 c-16 45 -74 201
-127 347 l-98 265 -60 3 -60 3 -124 -338z m240 63 l49 -146 -105 0 c-57 0
-104 3 -104 6 0 5 65 198 95 283 3 8 8 12 10 9 3 -3 28 -71 55 -152z"/>
<path d="M425 573 c-11 -3 -41 -11 -66 -19 -40 -13 -50 -13 -88 1 -94 33 -171
13 -224 -57 -85 -112 -44 -330 86 -460 33 -33 66 -36 142 -12 48 16 56 16 100
0 73 -24 100 -21 143 19 44 39 112 157 94 163 -49 16 -92 86 -92 150 0 54 12
83 49 117 29 28 29 30 13 48 -33 36 -107 60 -157 50z"/>
<path d="M1790 521 c-77 -25 -130 -77 -130 -128 0 -20 5 -23 43 -23 36 0 47 5
65 29 64 87 212 45 200 -57 -3 -27 -4 -27 -99 -33 -115 -8 -157 -20 -193 -57
-34 -36 -46 -81 -36 -127 18 -80 70 -119 160 -119 61 0 105 19 145 61 l25 28
0 -43 0 -42 51 0 50 0 -3 208 c-3 196 -4 209 -25 238 -13 17 -40 40 -60 50
-41 20 -152 28 -193 15z m180 -305 c0 -61 -40 -110 -103 -127 -122 -33 -181
104 -61 141 16 4 59 9 97 9 65 1 67 0 67 -23z"/>
<path d="M2279 516 c-51 -18 -79 -40 -110 -87 -52 -77 -60 -201 -20 -294 82
-188 377 -172 436 23 6 21 4 22 -43 22 -47 0 -51 -2 -71 -35 -23 -40 -54 -55
-111 -55 -105 0 -167 157 -109 277 24 51 65 76 122 75 47 -1 81 -22 102 -62
14 -27 20 -30 66 -30 48 0 50 1 43 23 -20 67 -56 109 -119 138 -47 22 -133 24
-186 5z"/>
<path d="M3356 515 c-89 -32 -147 -123 -149 -234 -2 -124 40 -208 126 -254 64
-33 177 -31 239 6 55 32 85 71 104 134 31 102 6 239 -54 296 -64 61 -178 84
-266 52z m186 -114 c48 -54 57 -178 17 -253 -17 -31 -70 -58 -116 -58 -119 0
-180 198 -95 308 43 56 145 58 194 3z"/>
<path d="M3879 516 c-78 -28 -130 -91 -149 -182 -23 -108 7 -212 77 -274 113
-99 305 -67 371 62 48 93 39 238 -20 319 -55 76 -181 110 -279 75z m173 -103
c32 -28 48 -77 48 -149 0 -113 -48 -174 -137 -174 -128 0 -184 217 -83 319 44
44 126 46 172 4z"/>
<path d="M5910 517 c-13 -7 -35 -28 -47 -46 l-23 -34 0 42 0 41 -50 0 -50 0 0
-255 0 -255 50 0 50 0 0 173 c0 152 2 176 19 203 21 35 77 59 117 51 23 -4 24
-2 24 44 0 49 0 49 -32 49 -18 0 -44 -6 -58 -13z"/>
<path d="M5550 265 l0 -255 55 0 55 0 0 255 0 255 -55 0 -55 0 0 -255z"/>
</g>
</svg>
