<?xml version="1.0" standalone="no"?>
<!DOCTYPE svg PUBLIC "-//W3C//DTD SVG 20010904//EN"
 "http://www.w3.org/TR/2001/REC-SVG-20010904/DTD/svg10.dtd">
<svg version="1.0" xmlns="http://www.w3.org/2000/svg"
 width="225.000000pt" height="224.000000pt" viewBox="0 0 225.000000 224.000000"
 preserveAspectRatio="xMidYMid meet">

<g transform="translate(0.000000,224.000000) scale(0.100000,-0.100000)"
fill="#000000" stroke="none">
<path d="M830 1623 c-8 -3 -23 -12 -32 -21 -16 -14 -18 -13 -18 1 0 10 -7 17
-15 17 -12 0 -15 -18 -15 -100 0 -82 3 -100 15 -100 12 0 15 14 15 63 0 72 18
107 55 107 33 0 45 -27 45 -104 0 -52 3 -66 15 -66 12 0 15 14 15 68 0 81 13
105 55 100 l30 -3 3 -82 c3 -75 5 -83 22 -83 18 0 20 7 20 84 0 64 -4 88 -16
100 -25 25 -82 24 -101 -2 -12 -14 -14 -14 -25 0 -15 19 -47 28 -68 21z"/>
<path d="M1144 1616 c-36 -16 -53 -46 -26 -46 9 0 26 7 36 15 30 23 75 3 76
-32 0 -7 -21 -15 -47 -18 -60 -9 -93 -29 -93 -58 0 -30 11 -44 43 -56 29 -11
52 -6 80 17 15 14 17 13 17 -1 0 -10 8 -17 20 -17 18 0 20 7 20 59 0 96 -8
121 -46 137 -40 17 -41 17 -80 0z m86 -121 c0 -23 -39 -57 -62 -53 -30 4 -45
32 -29 52 18 21 91 22 91 1z"/>
<path d="M1383 1623 c-37 -7 -63 -50 -63 -103 0 -81 57 -124 130 -99 26 10 50
35 50 53 0 12 -33 6 -44 -8 -20 -25 -52 -28 -77 -7 -29 23 -33 91 -7 117 21
21 68 21 83 0 13 -17 45 -22 45 -8 0 15 -45 50 -70 55 -14 3 -35 3 -47 0z"/>
<path d="M748 1267 c-50 -14 -63 -22 -116 -71 -66 -60 -98 -164 -89 -280 16
-194 120 -299 298 -299 162 -1 262 91 290 265 19 116 -19 255 -88 320 -65 62
-200 92 -295 65z m200 -100 c62 -41 96 -119 96 -221 0 -125 -41 -198 -132
-238 -93 -41 -202 0 -250 95 -49 95 -37 254 25 328 62 73 181 90 261 36z"/>
<path d="M1376 1269 c-95 -22 -150 -88 -150 -176 0 -79 55 -140 148 -163 117
-30 181 -54 202 -75 43 -43 25 -114 -38 -146 -86 -44 -209 -9 -239 69 -7 18
-16 22 -49 22 -35 0 -40 -3 -40 -22 1 -47 43 -101 103 -132 50 -25 69 -30 137
-30 153 0 247 80 237 202 -7 93 -58 135 -208 172 -140 35 -186 75 -159 141 39
94 228 93 263 -1 10 -27 16 -30 54 -30 49 0 51 6 24 66 -40 88 -161 132 -285
103z"/>
</g>
</svg>
